<?xml version="1.0" encoding="iso-8859-1"?>
<!-- Generator: Adobe Illustrator 19.0.0, SVG Export Plug-In . SVG Version: 6.00 Build 0)  -->
<svg version="1.1" id="Capa_1" xmlns="http://www.w3.org/2000/svg" xmlns:xlink="http://www.w3.org/1999/xlink" x="0px" y="0px"
	 viewBox="0 0 489.671 489.671" style="enable-background:new 0 0 489.671 489.671;" xml:space="preserve">
<g>
	<path d="M471.149,382.175c-4.847-4.846-10.395-8.836-16.509-11.851c-35.451-17.48-61.26-34.921-81.23-54.886l-49.911-49.911
		c16.236-26.502,25.602-57.67,25.602-91.027C349.1,78.127,270.974,0,174.6,0C78.227,0,0.1,78.127,0.1,174.5S78.227,349,174.6,349
		c33.337,0,64.486-9.353,90.978-25.571l36.415,36.419c29.383,29.383,51.049,64.437,70.092,97.944
		c4.633,8.155,10.828,15.28,18.82,20.576c31.418,20.818,59.825,7.749,69.802,1.201c16.189-10.619,26.583-27.56,28.528-46.477
		C491.18,414.165,484.588,395.615,471.149,382.175z M20.6,174.5c0-85.052,68.948-154,154-154c85.052,0,154,68.948,154,154
		s-68.948,154-154,154C89.548,328.5,20.6,259.552,20.6,174.5z M468.491,430.955c-1.319,12.848-8.163,23.887-19.217,31.185
		c-18.447,12.178-38.903,4.637-46.405-0.855c-5.225-3.826-9.565-8.358-12.656-13.795c-19.762-34.778-42.343-71.248-73.477-102.382
		l-33.558-33.558c5.386-4.235,10.431-8.704,15.079-13.347c4.642-4.653,9.107-9.693,13.348-15.079l47.062,47.057
		c21.63,21.626,49.196,40.328,86.739,58.838c4.067,2.006,7.763,4.663,11,7.9C465.386,405.898,469.789,418.31,468.491,430.955z"/>
	<path d="M90.23,90.17c-22.526,22.531-34.937,52.474-34.937,84.33c0,31.857,12.411,61.81,34.937,84.331l14.742-14.743
		c-18.591-18.581-28.828-43.3-28.828-69.588s10.242-50.998,28.828-69.588L90.23,90.17z"/>
</g>
<g>
</g>
<g>
</g>
<g>
</g>
<g>
</g>
<g>
</g>
<g>
</g>
<g>
</g>
<g>
</g>
<g>
</g>
<g>
</g>
<g>
</g>
<g>
</g>
<g>
</g>
<g>
</g>
<g>
</g>
</svg>
